:SAMPLES-PER-SECOND 30
:FULLY-SPECIFIED
:DEGREES
336
root  3.82688 32.2535 3.36958 143.54 -78.1141 -127.447
RightUpLeg  -56.2936 -22.4323 -10.2465
RightLeg  46.4564 20.0593 20.9229
RightFoot  13.174 -6.8931 31.4166
RightToes  -6.40286e-010 0 -3.6325e-017
Spine  30.8446 -0.0273019 -19.8198
Spine1  -15.1169 -5.69705 36.0068
HEad  -36.7034 22.826 -8.36736
LeftShoulder1  0.139396 7.43392 13.6949
LeftArm  -41.3047 14.9028 -5.45839
LeftForeArm  -2.34272 -47.4691 -12.3955
LeftHand  1.62246 9.00074 48.0281
RightShoulder  -0.0484059 -3.76659 9.88265
RightArm  -13.4427 -40.4314 52.4165
RightForeArm  -19.329 28.8256 7.20919
RightHand  -0.588483 -1.83078 -19.022
LeftUpLeg  -30.9955 26.2033 42.6661
LeftLeg  36.438 5.06096 4.31237
LeftFoot  0.281118 4.07706 -38.6016
LeftToes  -2.09187e-010 -4.93792e-011 -8.21189e-011
337
root  3.86664 32.5569 1.85747 146.39 -76.5672 -129.432
RightUpLeg  -56.6063 -21.7718 -6.45934
RightLeg  47.1502 23.3352 24.3976
RightFoot  7.46209 -5.25755 31.3406
RightToes  -6.40286e-010 0 -3.6325e-017
Spine  30.7115 -2.51845 -23.0211
Spine1  -15.479 -8.97608 37.8093
HEad  -32.8619 29.6442 -4.93905
LeftShoulder1  0.0602915 5.52314 13.0273
LeftArm  -39.3453 14.8646 -6.03928
LeftForeArm  -6.74713 -42.5773 -10.7102
LeftHand  1.55947 8.91452 47.3776
RightShoulder  -0.201111 -4.78276 8.06106
RightArm  -10.5538 -42.2528 53.5427
RightForeArm  -15.0071 32.6347 8.01065
RightHand  -0.567024 -1.52043 -16.9031
LeftUpLeg  -24.7361 21.6395 46.5737
LeftLeg  27.1039 12.6436 7.13278
LeftFoot  6.57419 6.47256 -39.8448
LeftToes  -2.09187e-010 -4.93792e-011 -8.21189e-011
338
root  3.85189 32.6899 0.461764 148.634 -75.2015 -131.043
RightUpLeg  -56.5579 -21.4711 -2.61629
RightLeg  47.5629 24.0449 25.3411
RightFoot  0.227738 -3.30602 31.8991
RightToes  -6.40286e-010 0 -3.6325e-017
Spine  30.5401 -4.74719 -25.2204
Spine1  -15.7632 -11.7919 38.7723
HEad  -28.7394 35.4574 -1.91971
LeftShoulder1  0.000949505 3.51029 11.6881
LeftArm  -35.8656 15.5993 -7.15395
LeftForeArm  -5.846 -37.0175 -8.79445
LeftHand  1.57954 8.94115 47.6019
RightShoulder  -0.363539 -6.22367 5.4891
RightArm  -7.56241 -43.901 54.0018
RightForeArm  -9.04107 37.7812 9.21769
RightHand  -0.516565 -1.12166 -13.9627
LeftUpLeg  -18.8077 17.5412 49.4823
LeftLeg  18.0618 20.3494 8.05436
LeftFoot  13.1702 8.45746 -38.0621
LeftToes  -2.09187e-010 -4.93792e-011 -8.21189e-011
339
root  3.84603 32.6258 -0.809425 151.867 -73.9754 -134.324
RightUpLeg  -56.5161 -19.9484 -0.479349
RightLeg  48.4809 21.9912 24.1617
RightFoot  -6.74358 -1.39385 32.6361
RightToes  -6.40286e-010 0 -3.6325e-017
Spine  30.7307 -6.09305 -27.2046
Spine1  -15.8522 -13.8842 39.7106
HEad  -25.4727 40.6669 -0.345057
LeftShoulder1  -0.000774472 1.83673 9.6954
LeftArm  -30.2142 17.1709 -8.91577
LeftForeArm  2.13116 -30.9821 -6.6449
LeftHand  1.68053 9.04365 49.005
RightShoulder  -0.473513 -7.70087 3.1105
RightArm  -5.12499 -44.8179 52.8588
RightForeArm  -0.571296 44.7495 11.1742
RightHand  -0.394848 -1.07431 -10.5227
LeftUpLeg  -13.8464 20.8525 49.436
LeftLeg  9.5582 19.8855 7.68634
LeftFoot  18.2241 9.3985 -35.0361
LeftToes  -2.09187e-010 -4.93792e-011 -8.21189e-011
340
root  3.87568 32.3222 -1.87528 155.643 -73.0988 -138.615
RightUpLeg  -57.5215 -17.4488 -0.367135
RightLeg  51.265 18.38 22.6105
RightFoot  -11.4173 -0.0575328 32.8628
RightToes  -6.40286e-010 0 -3.6325e-017
Spine  31.5428 -6.65681 -28.6336
Spine1  -16.3304 -15.0644 40.7375
HEad  -23.7939 45.0104 -0.286481
LeftShoulder1  0.0572512 0.839156 7.15835
LeftArm  -21.2629 18.6552 -10.8182
LeftForeArm  13.9196 -25.0624 -4.71937
LeftHand  1.98549 9.45163 51.6659
RightShoulder  -0.515584 -8.63059 1.72996
RightArm  -3.83077 -45.062 50.0735
RightForeArm  9.24616 53.0038 14.3071
RightHand  -0.249852 -1.08507 -6.6583
LeftUpLeg  -10.6722 28.2005 48.6905
LeftLeg  4.62478 14.172 7.55233
LeftFoot  20.4647 9.78192 -33.8943
LeftToes  -2.09187e-010 -4.93792e-011 -8.21189e-011
341
root  3.90134 31.8276 -2.71384 157.214 -73.1555 -140.615
RightUpLeg  -59.4961 -15.7498 -0.978925
RightLeg  55.6383 15.2934 22.2902
RightFoot  -13.9488 0.678747 33.1276
RightToes  -6.40286e-010 0 -3.6325e-017
Spine  32.4748 -7.00474 -28.5145
Spine1  -16.9138 -15.4374 41.1055
HEad  -24.199 47.5059 -1.48482
LeftShoulder1  0.157069 0.145363 4.31002
LeftArm  -10.705 19.0191 -12.5371
LeftForeArm  26.4328 -19.7074 -4.50243
LeftHand  2.30831 9.82314 54.5791
RightShoulder  -0.520203 -8.75572 1.58445
RightArm  -4.56525 -44.7032 46.9357
RightForeArm  17.3401 60.4439 18.5877
RightHand  -0.115832 -0.799293 -2.85585
LeftUpLeg  -9.5741 28.8965 49.8668
LeftLeg  4.6176 13.7597 7.17507
LeftFoot  20.7395 10.0877 -34.6076
LeftToes  -2.09187e-010 -4.93792e-011 -8.21189e-011
342
root  3.88752 31.2618 -3.27483 155.868 -74.1992 -139.584
RightUpLeg  -61.2213 -15.945 -1.4031
RightLeg  59.9969 13.7133 23.6547
RightFoot  -15.9943 1.30717 33.8995
RightToes  -6.40286e-010 0 -3.6325e-017
Spine  32.8511 -7.26295 -26.3522
Spine1  -16.5885 -15.2859 40.3502
HEad  -26.4433 47.6825 -3.65795
LeftShoulder1  0.315192 -0.837271 1.37708
LeftArm  -3.27077 18.042 -14.4427
LeftForeArm  39.6573 -15.058 -7.02227
LeftHand  2.29828 9.65359 56.1193
RightShoulder  -0.515802 -8.37299 2.36203
RightArm  -7.68697 -43.5763 44.754
RightForeArm  20.7317 65.1143 22.9387
RightHand  -0.0173252 -0.597284 -0.355339
LeftUpLeg  -10.7584 25.5062 51.5953
LeftLeg  7.7404 15.908 6.83743
LeftFoot  20.0056 10.0742 -35.3455
LeftToes  -2.09187e-010 -4.93792e-011 -8.21189e-011
